# xmcd
#
# Track frame offsets:
#	150
#	18575
#	35189
#	54899
#	76685
#	96536
#	112760
#	130872
#	151721
#	166367
#	180375
#	206500
#	224417
#	240617
#	256805
#	274975
#
# Disc length: 3900 seconds
#
# Revision: 0
# Processed by: cddbd v1.5.1PL0 Copyright (c) Steve Scherf et al.
# Submitted via: audiograbber 1.83.01
#
DISCID=d10f3a10
DTITLE=Burcu Gunes - Ay Sahit
DYEAR=1900
DGENRE=
TTITLE0=Ay Sahit
TTITLE1=Sinifta Kal
TTITLE2=Yakisir
TTITLE3=Uyan
TTITLE4=Sahilden
TTITLE5=Distortion
TTITLE6=Savulun Yillar
TTITLE7=Carpar
TTITLE8=Kanim Kaynadi
TTITLE9=Cografya
TTITLE10=Uzagina Dustum
TTITLE11=Son Mektup
TTITLE12=Kulun Olayim
TTITLE13=Ne Olacak
TTITLE14=Alismak
TTITLE15=Sahilden (Dance Version)
EXTD=
EXTT0=
EXTT1=
EXTT2=
EXTT3=
EXTT4=
EXTT5=
EXTT6=
EXTT7=
EXTT8=
EXTT9=
EXTT10=
EXTT11=
EXTT12=
EXTT13=
EXTT14=
EXTT15=
PLAYORDER=
